<?xml version="1.0" standalone="no"?>
<!DOCTYPE svg PUBLIC "-//W3C//DTD SVG 20010904//EN"
 "http://www.w3.org/TR/2001/REC-SVG-20010904/DTD/svg10.dtd">
<svg version="1.0" xmlns="http://www.w3.org/2000/svg"
 width="403.000000pt" height="268.000000pt" viewBox="0 0 403.000000 268.000000"
 preserveAspectRatio="xMidYMid meet">

<g transform="translate(0.000000,268.000000) scale(0.100000,-0.100000)"
fill="#000000" stroke="none">
<path d="M750 2515 c-170 -34 -296 -100 -411 -215 -68 -68 -94 -102 -127 -170
-54 -109 -76 -214 -68 -331 10 -159 63 -282 168 -395 107 -114 271 -205 548
-304 353 -127 431 -190 431 -347 0 -158 -104 -242 -312 -251 -133 -6 -224 13
-339 69 -146 70 -140 62 -140 190 0 60 -2 109 -5 109 -3 0 -102 -96 -220 -214
l-214 -213 47 -46 c207 -201 523 -327 822 -327 492 0 833 276 856 694 16 297
-102 489 -391 634 -33 16 -158 68 -277 116 -391 154 -463 202 -483 323 -8 48
14 136 43 168 105 123 302 137 516 36 l85 -39 3 -101 3 -101 219 219 218 219
-78 55 c-163 115 -339 190 -518 222 -106 18 -286 18 -376 0z"/>
<path d="M1948 2411 l92 -88 0 -1019 0 -1019 -92 -92 -93 -93 520 0 c562 0
626 4 800 55 107 31 248 96 336 155 90 61 236 211 293 302 124 201 180 411
180 683 0 173 -14 272 -61 419 -112 356 -402 631 -773 734 -170 48 -233 52
-780 52 l-515 -1 93 -88z m997 -355 c268 -75 461 -277 526 -551 29 -122 29
-306 0 -420 -62 -240 -247 -445 -468 -518 -112 -37 -187 -47 -350 -47 l-143 0
0 781 0 781 188 -5 c132 -3 205 -9 247 -21z"/>
</g>
</svg>
